<?xml version="1.0" encoding="UTF-8"?>
<svg viewBox="0 0 1200 630" xmlns="http://www.w3.org/2000/svg" role="img" aria-label="RechnungsFee 0.7.0 – Abschlagsrechnungen verrechnen sich automatisch mit der Schlussrechnung">
  <defs>
    <linearGradient id="bgGrad" x1="0%" y1="0%" x2="100%" y2="100%">
      <stop offset="0%" stop-color="#eef2ff"/>
      <stop offset="100%" stop-color="#ffffff"/>
    </linearGradient>
    <linearGradient id="wandGrad" x1="0%" y1="0%" x2="100%" y2="100%">
      <stop offset="0%" stop-color="#818CF8"/>
      <stop offset="100%" stop-color="#3730A3"/>
    </linearGradient>
    <clipPath id="winclip"><rect x="520" y="80" width="610" height="470" rx="12"/></clipPath>
  </defs>

  <rect width="1200" height="630" fill="url(#bgGrad)"/>
  <circle cx="1180" cy="40" r="170" fill="#4F46E5" opacity="0.05"/>
  <circle cx="30" cy="600" r="140" fill="#FFA000" opacity="0.05"/>

  <!-- Linke Spalte: Titeltext -->
  <g font-family="Arial, sans-serif">
    <rect x="70" y="140" width="150" height="26" rx="13" fill="#E0E7FF"/>
    <text x="145" y="157" font-size="12" font-weight="700" letter-spacing="1.5" fill="#4F46E5" text-anchor="middle">RELEASE 0.7.0</text>

    <text x="68" y="225" font-size="44" font-weight="700" fill="#1E293B">Rechnungs<tspan fill="#4F46E5">Fee</tspan></text>

    <text x="68" y="282" font-size="25" font-weight="600" fill="#334155">Abschlagsrechnungen &amp;</text>
    <text x="68" y="314" font-size="25" font-weight="600" fill="#334155">automatische</text>
    <text x="68" y="346" font-size="25" font-weight="600" fill="#334155">Schlussrechnung</text>

    <g transform="translate(68,392)">
      <rect width="26" height="26" rx="7" fill="#ffffff" stroke="#4F46E5" stroke-width="2"/>
      <rect x="6" y="7" width="10" height="2" rx="1" fill="#C7D2FE"/>
      <rect x="6" y="12" width="14" height="2" rx="1" fill="#C7D2FE"/>
      <rect x="6" y="17" width="8" height="2" rx="1" fill="#C7D2FE"/>
      <path d="M17 -2 L19.3 3 L25 5.3 L19.3 7.6 L17 13 L14.7 7.6 L9 5.3 L14.7 3 Z" fill="#FFA000"/>
    </g>
    <text x="106" y="411" font-family="Arial, sans-serif" font-size="15" fill="#64748B">Offline-Buchhaltung · rechnungsfee.app</text>
  </g>

  <!-- Rechte Spalte: stilisiertes App-Fenster -->
  <rect x="532" y="92" width="610" height="470" rx="12" fill="#000000" opacity="0.10"/>
  <g clip-path="url(#winclip)">
    <rect x="520" y="80" width="610" height="470" fill="#f8fafc"/>

    <!-- Titelleiste -->
    <rect x="520" y="80" width="610" height="30" fill="#0f172a"/>
    <text x="825" y="100" font-family="Arial, sans-serif" font-size="12" font-weight="600" fill="white" text-anchor="middle">RechnungsFee v0.7.0</text>
    <g stroke="rgba(255,255,255,0.8)" stroke-width="1.3" fill="none">
      <path d="M1080 95 h9"/>
      <rect x="1103" y="90" width="9" height="9"/>
      <path d="M1127 90 l9 9 M1136 90 l-9 9"/>
    </g>

    <!-- Sidebar -->
    <rect x="520" y="110" width="168" height="440" fill="#ffffff"/>
    <line x1="688" y1="110" x2="688" y2="550" stroke="#e2e8f0" stroke-width="1"/>

    <g transform="translate(534,122)">
      <rect width="26" height="26" rx="7" fill="#ffffff" stroke="#4F46E5" stroke-width="2"/>
      <rect x="6" y="7" width="10" height="2" rx="1" fill="#C7D2FE"/>
      <rect x="6" y="12" width="14" height="2" rx="1" fill="#C7D2FE"/>
      <rect x="6" y="17" width="8" height="2" rx="1" fill="#C7D2FE"/>
      <path d="M17 -2 L19.3 3 L25 5.3 L19.3 7.6 L17 13 L14.7 7.6 L9 5.3 L14.7 3 Z" fill="#FFA000"/>
    </g>
    <text x="567" y="133" font-family="Arial, sans-serif" font-size="12" font-weight="700" fill="#1E293B">Rechnungs<tspan fill="#4F46E5">Fee</tspan></text>
    <text x="567" y="146" font-family="Arial, sans-serif" font-size="8" fill="#94a3b8">v0.7.0</text>
    <line x1="520" y1="160" x2="688" y2="160" stroke="#e2e8f0" stroke-width="1"/>

    <text x="534" y="178" font-family="Arial, sans-serif" font-size="9" font-weight="700" letter-spacing="0.5" fill="#94a3b8">FAKTURIERUNG</text>

    <g font-family="Arial, sans-serif" font-size="11" fill="#475569">
      <circle cx="541" cy="195" r="3" fill="#cbd5e1"/>
      <text x="552" y="199">Angebote</text>
      <circle cx="541" cy="217" r="3" fill="#cbd5e1"/>
      <text x="552" y="221">Aufträge</text>
      <circle cx="541" cy="239" r="3" fill="#cbd5e1"/>
      <text x="552" y="243">Proforma</text>
      <circle cx="541" cy="261" r="3" fill="#cbd5e1"/>
      <text x="552" y="265">Lieferscheine</text>
    </g>

    <!-- aktiver Menüpunkt: Abschlagsrechnungen -->
    <rect x="524" y="275" width="160" height="26" rx="6" fill="#EEF2FF"/>
    <rect x="520" y="275" width="3" height="26" fill="#4F46E5"/>
    <circle cx="541" cy="288" r="3" fill="#4F46E5"/>
    <text x="552" y="292" font-family="Arial, sans-serif" font-size="11" font-weight="700" fill="#4F46E5">Abschlagsrechnungen</text>

    <g font-family="Arial, sans-serif" font-size="11" fill="#475569">
      <circle cx="541" cy="323" r="3" fill="#cbd5e1"/>
      <text x="552" y="327">Rechnungen</text>
      <circle cx="541" cy="345" r="3" fill="#cbd5e1"/>
      <text x="552" y="349">Wiederkehrend</text>
    </g>

    <!-- Content: Schlussrechnung-Verrechnungsdialog -->
    <text x="704" y="140" font-family="Arial, sans-serif" font-size="15" font-weight="700" fill="#1E293B">Schlussrechnung erstellen</text>
    <text x="704" y="158" font-family="Arial, sans-serif" font-size="10" fill="#64748B">Kunde: Mustermann GmbH</text>

    <rect x="704" y="172" width="408" height="150" rx="10" fill="#ffffff" stroke="#e2e8f0"/>
    <text x="718" y="194" font-family="Arial, sans-serif" font-size="10" font-weight="700" fill="#334155">Offene Abschlagsrechnungen</text>

    <g transform="translate(718,206)">
      <rect width="380" height="34" rx="6" fill="#f8fafc"/>
      <rect x="8" y="10" width="14" height="14" rx="3" fill="#4F46E5"/>
      <path d="M11 17 l3 3 l6 -7" stroke="white" stroke-width="2" fill="none" stroke-linecap="round" stroke-linejoin="round"/>
      <text x="32" y="21" font-family="Arial, sans-serif" font-size="10" fill="#334155">Abschlag 1 · AB-260012</text>
      <text x="372" y="21" font-family="Arial, sans-serif" font-size="10" fill="#475569" text-anchor="end">650,00 €</text>
    </g>
    <g transform="translate(718,246)">
      <rect width="380" height="34" rx="6" fill="#f8fafc"/>
      <rect x="8" y="10" width="14" height="14" rx="3" fill="#4F46E5"/>
      <path d="M11 17 l3 3 l6 -7" stroke="white" stroke-width="2" fill="none" stroke-linecap="round" stroke-linejoin="round"/>
      <text x="32" y="21" font-family="Arial, sans-serif" font-size="10" fill="#334155">Abschlag 2 · AB-260031</text>
      <text x="372" y="21" font-family="Arial, sans-serif" font-size="10" fill="#475569" text-anchor="end">500,00 €</text>
    </g>

    <rect x="718" y="290" width="380" height="2" fill="#e2e8f0"/>
    <text x="718" y="309" font-family="Arial, sans-serif" font-size="10" fill="#64748B">Gesamtleistung 2.300,00 €  −  1.150,00 € bereits gezahlt</text>

    <rect x="704" y="334" width="408" height="40" rx="8" fill="#EEF2FF"/>
    <text x="718" y="359" font-family="Arial, sans-serif" font-size="13" font-weight="700" fill="#3730A3">Restbetrag: 1.150,00 €</text>

    <rect x="988" y="520" width="124" height="28" rx="7" fill="#4F46E5"/>
    <text x="1050" y="538" font-family="Arial, sans-serif" font-size="11" font-weight="700" fill="white" text-anchor="middle">Schlussrechnung</text>
  </g>

  <!-- Floating Stat-Chip: Bugfixes/Verbesserungen -->
  <rect x="452" y="470" width="214" height="104" rx="10" fill="#000000" opacity="0.10"/>
  <rect x="446" y="464" width="214" height="104" rx="10" fill="white" stroke="#e2e8f0"/>
  <g transform="translate(464,482)">
    <circle cx="10" cy="8" r="10" fill="#FFA000"/>
    <path d="M10 2 L11.6 6.4 L16 8 L11.6 9.6 L10 14 L8.4 9.6 L4 8 L8.4 6.4 Z" fill="white"/>
  </g>
  <text x="492" y="493" font-family="Arial, sans-serif" font-size="12" font-weight="700" fill="#1E293B">seit v0.6.0</text>
  <text x="464" y="518" font-family="Arial, sans-serif" font-size="20" font-weight="700" fill="#4F46E5">47 Bugfixes</text>
  <text x="464" y="541" font-family="Arial, sans-serif" font-size="13" fill="#475569">12 Verbesserungen</text>
  <text x="464" y="560" font-family="Arial, sans-serif" font-size="10" fill="#94a3b8">in 15 Zwischenversionen</text>
</svg>
